<svg width="480" height="982" viewBox="0 0 480 982" fill="none" xmlns="http://www.w3.org/2000/svg">
<path fill-rule="evenodd" clip-rule="evenodd" d="M20.9801 136.699C52.6975 200.191 95.3106 237.851 165.641 264.553L183.808 271.45L163.862 249.251C152.893 237.035 128.995 211.317 110.748 192.089C92.5014 172.861 78.9636 155.74 80.6626 154.041C82.3615 152.341 108.922 173.965 139.69 202.098C181.895 240.688 194.376 249.205 190.53 236.801C167.32 161.889 93.2104 91.3787 18.2645 72.9065C-6.84462 66.7179 -6.18241 82.3331 20.9801 136.699ZM49.7077 -72.5892C62.0147 -33.1829 88.0134 8.82605 117.122 36.3704C140.318 58.3215 141.562 58.7363 136.941 43.0607C134.232 33.8614 121.871 0.971613 109.47 -30.0316C97.0765 -61.0282 88.0936 -87.5555 89.5116 -88.9739C90.9296 -90.3989 108.213 -61.0217 127.918 -23.6961C157.562 32.4629 164.11 41.1274 165.896 26.5356C171.956 -23.1538 136.794 -109.534 91.3978 -156.493C43.0726 -206.484 39.9289 -206.049 40.4506 -149.522C40.6981 -122.713 44.8584 -88.0975 49.7077 -72.5892ZM59.5266 358.606C75.2047 407.64 93.3776 436.488 129.677 469.96C156.471 494.661 212.194 528.742 217.318 523.564C218.482 522.386 198.69 496.013 173.347 464.963C147.997 433.906 128.68 407.071 130.426 405.325C132.172 403.585 156.311 425.978 184.069 455.101C238.032 511.702 242.908 508.584 208.817 439.258C182.39 385.515 119.784 332.379 61.7405 314.429C43.9421 308.923 43.902 309.739 59.5266 358.606ZM109.577 661.921C123.824 706.854 144.526 740.908 174.892 769.335C229.451 820.416 230.943 818.677 193.948 747.083C174.424 709.296 159.722 677.095 161.281 675.529C162.846 673.97 180.504 699.454 200.529 732.17C220.555 764.886 237.892 790.691 239.063 789.52C245.076 783.505 218.803 686.803 204.556 662.476C187.627 633.587 139.937 585.711 114.54 572.116C100.702 564.71 100.213 565.667 100.648 599.801C100.896 619.25 104.915 647.202 109.577 661.921ZM187.152 130.036C190.717 135.555 193.633 137.061 193.633 133.381C193.633 129.701 190.717 122.174 187.152 116.655C183.587 111.135 180.671 109.63 180.671 113.31C180.671 116.989 183.587 124.516 187.152 130.036ZM214.328 209.765C266.78 361.422 284.946 505.754 274.251 685.873C266.579 815.104 257.349 873.33 235.404 930.867C222.675 964.246 222.622 966.093 234.093 976.483C245.357 986.672 246.841 985.187 259.65 950.945C308.23 821.085 312.758 585.691 270.7 376.73C255.028 298.847 222.414 191.728 204.114 158.015C189.5 131.086 192.664 147.143 214.328 209.765ZM259.276 228.973C263.242 234.767 270.144 219.413 280.325 182.14C307.708 81.9186 316.49 88.0602 294.725 192.216C282.472 250.871 282.472 251.018 295.715 239.049C317.226 219.606 340.783 166.471 346.241 125.071C351.11 88.1605 345.692 5.38701 337.893 -2.40724C329.961 -10.3488 294.538 32.9181 276.853 72.1572C262.854 103.214 257.697 126.436 255.838 166.833C254.48 196.27 256.032 224.236 259.276 228.973ZM354.495 758.249C380.694 734.706 408.693 710.928 416.712 705.408C432.905 694.256 386.139 752.649 357.772 779.003C347.866 788.202 337.017 800.82 333.666 807.035C327.981 817.579 329.64 817.646 357.926 807.999C416.304 788.108 482.635 710.54 498.588 643.522C503.965 620.929 495.35 619.892 448.871 637.561C387.623 660.837 344.355 705.295 318.383 771.63L306.858 801.061L354.495 758.249ZM323.553 498.007C325.259 498.007 342.582 469.151 362.059 433.886C381.537 398.621 398.379 372.495 399.489 375.834C400.599 379.165 387.991 411.032 371.47 446.645C354.95 482.251 343.9 511.387 346.93 511.387C359.137 511.387 422.404 436.254 435.427 406.288C444.122 386.291 450.744 353.093 453.038 318.022L456.71 261.816L426.297 282.744C371.751 320.283 334.77 386.016 324.951 462.882C322.483 482.204 321.854 498.007 323.553 498.007Z" fill="#646368" fill-opacity="0.1"/>
</svg>
